<mxfile host="app.diagrams.net" modified="2021-09-17T15:47:46.650Z" agent="5.0 (Windows NT 10.0; Win64; x64) AppleWebKit/537.36 (KHTML, like Gecko) Chrome/93.0.4577.82 Safari/537.36" etag="2w-Vl6yc3_HtNWhDliJK" version="15.2.4" type="github" pages="4">
  <diagram id="b8_TSSKg8egfT6IC5Q3B" name="Objetos">
    <mxGraphModel dx="1422" dy="762" grid="1" gridSize="10" guides="1" tooltips="1" connect="1" arrows="1" fold="1" page="1" pageScale="1" pageWidth="1169" pageHeight="827" math="0" shadow="0">
      <root>
        <mxCell id="0" />
        <mxCell id="1" parent="0" />
        <mxCell id="f42O4SaMyGn7hrSS6z3E-1" value="&lt;b&gt;Pedido de reparación&lt;/b&gt;&lt;br&gt;(Pedido - Ventas)" style="rounded=1;whiteSpace=wrap;html=1;fillColor=#e1d5e7;strokeColor=#9673a6;" parent="1" vertex="1">
          <mxGeometry x="50" y="40" width="140" height="57.5" as="geometry" />
        </mxCell>
        <mxCell id="f42O4SaMyGn7hrSS6z3E-13" value="&lt;b&gt;Requisición de reparación&lt;/b&gt;&lt;br&gt;(Requisición -&amp;nbsp;Compras)" style="rounded=1;whiteSpace=wrap;html=1;fillColor=#f8cecc;strokeColor=#b85450;" parent="1" vertex="1">
          <mxGeometry x="270" y="40" width="150" height="57.5" as="geometry" />
        </mxCell>
        <mxCell id="f42O4SaMyGn7hrSS6z3E-26" value="&lt;b&gt;Ingreso reparación&lt;br&gt;&lt;/b&gt;(Mov. Entrada)&lt;br&gt;&lt;br&gt;&lt;div style=&quot;text-align: left ; font-size: 11px&quot;&gt;Origen :&amp;nbsp;&lt;/div&gt;&lt;div style=&quot;text-align: left ; font-size: 11px&quot;&gt;Destino:&amp;nbsp;&lt;/div&gt;&lt;div style=&quot;text-align: left ; font-size: 11px&quot;&gt;Referencia:&lt;/div&gt;" style="rounded=1;whiteSpace=wrap;html=1;fillColor=#dae8fc;strokeColor=#6c8ebf;" parent="1" vertex="1">
          <mxGeometry x="690" y="40" width="180" height="85" as="geometry" />
        </mxCell>
        <mxCell id="f42O4SaMyGn7hrSS6z3E-27" value="&lt;b&gt;Envió a reparación&lt;/b&gt;&lt;br&gt;(Mov. Salida)&lt;br&gt;&lt;br&gt;&lt;div style=&quot;text-align: left&quot;&gt;&lt;span style=&quot;font-size: 11px&quot;&gt;Origen&lt;/span&gt;&lt;span style=&quot;font-size: 11px&quot;&gt;&amp;nbsp;:&amp;nbsp;&lt;/span&gt;&lt;/div&gt;&lt;div style=&quot;text-align: left ; font-size: 11px&quot;&gt;&lt;span&gt;&lt;font style=&quot;font-size: 11px&quot;&gt;Destino:&amp;nbsp;&lt;/font&gt;&lt;/span&gt;&lt;/div&gt;&lt;div style=&quot;text-align: left ; font-size: 11px&quot;&gt;&lt;span&gt;&lt;font style=&quot;font-size: 11px&quot;&gt;Referencia:&amp;nbsp;&lt;/font&gt;&lt;/span&gt;&lt;/div&gt;" style="rounded=1;whiteSpace=wrap;html=1;fillColor=#ffe6cc;strokeColor=#d79b00;" parent="1" vertex="1">
          <mxGeometry x="490" y="50" width="150" height="85" as="geometry" />
        </mxCell>
        <mxCell id="zabs7y87yemhLvrNm3Eo-1" value="&lt;b&gt;Pedido de reparación&lt;/b&gt;&lt;br&gt;(Pedido-Compras)" style="rounded=1;whiteSpace=wrap;html=1;fillColor=#f8cecc;strokeColor=#b85450;" parent="1" vertex="1">
          <mxGeometry x="270" y="112.5" width="150" height="57.5" as="geometry" />
        </mxCell>
        <mxCell id="zabs7y87yemhLvrNm3Eo-2" value="&lt;b&gt;Cotización reparación&lt;/b&gt;&lt;br&gt;(Cotización - Ventas)&lt;br&gt;&lt;br&gt;&lt;div style=&quot;text-align: left&quot;&gt;&lt;span style=&quot;font-size: 11px&quot;&gt;Referencia: Envío a&amp;nbsp;&lt;/span&gt;&lt;span style=&quot;font-size: 11px&quot;&gt;reparación&lt;/span&gt;&lt;/div&gt;" style="rounded=1;whiteSpace=wrap;html=1;fillColor=#e1d5e7;strokeColor=#9673a6;" parent="1" vertex="1">
          <mxGeometry x="40" y="120" width="170" height="70" as="geometry" />
        </mxCell>
      </root>
    </mxGraphModel>
  </diagram>
  <diagram id="jZ76nlVt1Fy1Cu6LPGMo" name="Alquiler a Proveedor">
    <mxGraphModel dx="1620" dy="796" grid="1" gridSize="10" guides="1" tooltips="1" connect="1" arrows="1" fold="1" page="1" pageScale="1" pageWidth="1169" pageHeight="827" math="0" shadow="0">
      <root>
        <mxCell id="UU99kKh83RRp0si5JTKh-0" />
        <mxCell id="UU99kKh83RRp0si5JTKh-1" parent="UU99kKh83RRp0si5JTKh-0" />
        <mxCell id="Ngph-VFAuc6McCXTukuA-0" value="&lt;b&gt;Devolución a proveedor&lt;/b&gt;&lt;br&gt;(Mov. Salida)&lt;br&gt;&lt;br&gt;&lt;div style=&quot;text-align: left&quot;&gt;&lt;span style=&quot;font-size: 11px&quot;&gt;Origen&lt;/span&gt;&lt;span style=&quot;font-size: 11px&quot;&gt;&amp;nbsp;: Deposito&lt;/span&gt;&lt;/div&gt;&lt;div style=&quot;text-align: left ; font-size: 11px&quot;&gt;Destino: Proveedor&lt;/div&gt;&lt;div style=&quot;text-align: left ; font-size: 11px&quot;&gt;Referencia: Alquiler a proveedor&lt;/div&gt;" style="rounded=1;whiteSpace=wrap;html=1;fillColor=#ffe6cc;strokeColor=#d79b00;" parent="UU99kKh83RRp0si5JTKh-1" vertex="1">
          <mxGeometry x="900" y="80" width="180" height="130" as="geometry" />
        </mxCell>
        <mxCell id="Ngph-VFAuc6McCXTukuA-2" value="&lt;b&gt;Alquiler a proveedor&lt;br&gt;&lt;/b&gt;#268&lt;br&gt;(Mov Entrada)&lt;br&gt;&lt;br&gt;&lt;div style=&quot;text-align: left ; font-size: 11px&quot;&gt;Origen : Proveedor&lt;/div&gt;&lt;div style=&quot;text-align: left ; font-size: 11px&quot;&gt;Destino: Deposito&lt;/div&gt;&lt;div style=&quot;text-align: left ; font-size: 11px&quot;&gt;Referencia: Pedido de Alquiler&lt;/div&gt;" style="rounded=1;whiteSpace=wrap;html=1;fillColor=#dae8fc;strokeColor=#6c8ebf;" parent="UU99kKh83RRp0si5JTKh-1" vertex="1">
          <mxGeometry x="230" y="85" width="190" height="130" as="geometry" />
        </mxCell>
        <mxCell id="Ngph-VFAuc6McCXTukuA-3" style="edgeStyle=orthogonalEdgeStyle;rounded=0;orthogonalLoop=1;jettySize=auto;html=1;entryX=-0.018;entryY=0.462;entryDx=0;entryDy=0;entryPerimeter=0;" parent="UU99kKh83RRp0si5JTKh-1" source="Ngph-VFAuc6McCXTukuA-5" target="Ngph-VFAuc6McCXTukuA-2" edge="1">
          <mxGeometry relative="1" as="geometry" />
        </mxCell>
        <mxCell id="Ngph-VFAuc6McCXTukuA-4" style="edgeStyle=orthogonalEdgeStyle;rounded=1;orthogonalLoop=1;jettySize=auto;html=1;entryX=0.75;entryY=0;entryDx=0;entryDy=0;exitX=0.5;exitY=0;exitDx=0;exitDy=0;dashed=1;" parent="UU99kKh83RRp0si5JTKh-1" source="Ngph-VFAuc6McCXTukuA-2" target="Ngph-VFAuc6McCXTukuA-0" edge="1">
          <mxGeometry relative="1" as="geometry">
            <mxPoint x="110" y="60" as="sourcePoint" />
          </mxGeometry>
        </mxCell>
        <mxCell id="Ngph-VFAuc6McCXTukuA-5" value="&lt;b&gt;Pedido de alquiler&lt;/b&gt;&lt;br&gt;(Pedido-Compras)" style="rounded=1;whiteSpace=wrap;html=1;fillColor=#f8cecc;strokeColor=#b85450;" parent="UU99kKh83RRp0si5JTKh-1" vertex="1">
          <mxGeometry x="30" y="116.25" width="150" height="57.5" as="geometry" />
        </mxCell>
        <mxCell id="Ngph-VFAuc6McCXTukuA-6" value="&lt;b&gt;Devolucion de alquiler&lt;br&gt;&lt;/b&gt;(Mov. Entrada)&lt;br&gt;&lt;br&gt;&lt;div style=&quot;text-align: left ; font-size: 11px&quot;&gt;Origen : Cliente&lt;/div&gt;&lt;div style=&quot;text-align: left ; font-size: 11px&quot;&gt;Destino: Deposito&lt;/div&gt;" style="rounded=1;whiteSpace=wrap;html=1;fillColor=#dae8fc;strokeColor=#6c8ebf;" parent="UU99kKh83RRp0si5JTKh-1" vertex="1">
          <mxGeometry x="670" y="102.5" width="180" height="85" as="geometry" />
        </mxCell>
        <mxCell id="Ngph-VFAuc6McCXTukuA-7" value="&lt;b&gt;Alquiler&lt;/b&gt;&lt;br&gt;(Mov. Salida)&lt;br&gt;&lt;br&gt;&lt;div style=&quot;text-align: left&quot;&gt;&lt;span style=&quot;font-size: 11px&quot;&gt;Origen&lt;/span&gt;&lt;span style=&quot;font-size: 11px&quot;&gt;&amp;nbsp;: Deposito&lt;/span&gt;&lt;/div&gt;&lt;div style=&quot;text-align: left ; font-size: 11px&quot;&gt;&lt;span&gt;&lt;font style=&quot;font-size: 11px&quot;&gt;Destino: Cliente&lt;/font&gt;&lt;/span&gt;&lt;/div&gt;" style="rounded=1;whiteSpace=wrap;html=1;fillColor=#ffe6cc;strokeColor=#d79b00;" parent="UU99kKh83RRp0si5JTKh-1" vertex="1">
          <mxGeometry x="460" y="107.5" width="150" height="85" as="geometry" />
        </mxCell>
        <mxCell id="Ngph-VFAuc6McCXTukuA-8" value="" style="shape=flexArrow;endArrow=classic;startArrow=classic;html=1;entryX=0.01;entryY=0.54;entryDx=0;entryDy=0;entryPerimeter=0;exitX=1;exitY=0.5;exitDx=0;exitDy=0;" parent="UU99kKh83RRp0si5JTKh-1" source="Ngph-VFAuc6McCXTukuA-7" target="Ngph-VFAuc6McCXTukuA-6" edge="1">
          <mxGeometry width="100" height="100" relative="1" as="geometry">
            <mxPoint x="580" y="385" as="sourcePoint" />
            <mxPoint x="680" y="285" as="targetPoint" />
          </mxGeometry>
        </mxCell>
      </root>
    </mxGraphModel>
  </diagram>
  <diagram id="Fhc2QWeOnQ8ZWvaQKd8X" name="Reparacion">
    <mxGraphModel dx="1620" dy="796" grid="1" gridSize="10" guides="1" tooltips="1" connect="1" arrows="1" fold="1" page="1" pageScale="1" pageWidth="1169" pageHeight="827" math="0" shadow="0">
      <root>
        <mxCell id="UE_UC31S6Wi6J-l9XYea-0" />
        <mxCell id="UE_UC31S6Wi6J-l9XYea-1" parent="UE_UC31S6Wi6J-l9XYea-0" />
        <mxCell id="UE_UC31S6Wi6J-l9XYea-3" value="&lt;b&gt;Recepción&amp;nbsp;de&amp;nbsp; reparación&lt;br&gt;&lt;/b&gt;#267&lt;br&gt;(Mov. Entrada)&lt;br&gt;&lt;br&gt;&lt;div style=&quot;text-align: left ; font-size: 11px&quot;&gt;Origen : Proveedor&lt;/div&gt;&lt;div style=&quot;text-align: left ; font-size: 11px&quot;&gt;Destino: Deposito&lt;/div&gt;&lt;div style=&quot;text-align: left ; font-size: 11px&quot;&gt;Referencia: Cotización reparación&lt;/div&gt;&lt;div style=&quot;text-align: left ; font-size: 11px&quot;&gt;&lt;br&gt;&lt;/div&gt;&lt;div style=&quot;text-align: justify ; font-size: 11px&quot;&gt;&lt;font face=&quot;Times New Roman&quot;&gt;Obs: &quot;Se gestiona stock de origen a destino&quot;&lt;/font&gt;&lt;/div&gt;" style="rounded=1;whiteSpace=wrap;html=1;fillColor=#dae8fc;strokeColor=#6c8ebf;" parent="UE_UC31S6Wi6J-l9XYea-1" vertex="1">
          <mxGeometry x="800" y="31.93" width="200" height="137" as="geometry" />
        </mxCell>
        <mxCell id="ez8-ZB6mri_OmdBjOkzV-1" value="" style="edgeStyle=orthogonalEdgeStyle;rounded=1;orthogonalLoop=1;jettySize=auto;html=1;" parent="UE_UC31S6Wi6J-l9XYea-1" source="UE_UC31S6Wi6J-l9XYea-4" target="UE_UC31S6Wi6J-l9XYea-8" edge="1">
          <mxGeometry relative="1" as="geometry" />
        </mxCell>
        <mxCell id="UE_UC31S6Wi6J-l9XYea-4" value="&lt;b&gt;Envío&amp;nbsp;a reparación&lt;br&gt;&lt;/b&gt;#262&lt;br&gt;(Mov. Salida)&lt;br&gt;&lt;br&gt;&lt;div style=&quot;text-align: left&quot;&gt;&lt;span style=&quot;font-size: 11px&quot;&gt;Origen&lt;/span&gt;&lt;span style=&quot;font-size: 11px&quot;&gt;&amp;nbsp;: Deposito&lt;/span&gt;&lt;/div&gt;&lt;div style=&quot;text-align: left ; font-size: 11px&quot;&gt;&lt;span&gt;&lt;font style=&quot;font-size: 11px&quot;&gt;Destino: Proveedor&lt;/font&gt;&lt;/span&gt;&lt;/div&gt;&lt;div style=&quot;text-align: left&quot;&gt;&lt;font&gt;&lt;span style=&quot;font-size: 11px&quot;&gt;Referencia: Pedido de reparacion&lt;/span&gt;&lt;/font&gt;&lt;/div&gt;&lt;div style=&quot;text-align: left&quot;&gt;&lt;span style=&quot;font-size: 11px&quot;&gt;&lt;br&gt;&lt;/span&gt;&lt;/div&gt;&lt;div style=&quot;text-align: left ; font-size: 11px&quot;&gt;&lt;span style=&quot;font-family: &amp;#34;times new roman&amp;#34; ; text-align: justify&quot;&gt;Obs: &quot;Se gestiona stock de origen a destino&quot;&lt;/span&gt;&lt;span&gt;&lt;font style=&quot;font-size: 11px&quot;&gt;&lt;br&gt;&lt;/font&gt;&lt;/span&gt;&lt;/div&gt;" style="rounded=1;whiteSpace=wrap;html=1;fillColor=#ffe6cc;strokeColor=#d79b00;" parent="UE_UC31S6Wi6J-l9XYea-1" vertex="1">
          <mxGeometry x="360" y="30.810000000000002" width="200" height="138.12" as="geometry" />
        </mxCell>
        <mxCell id="ez8-ZB6mri_OmdBjOkzV-0" value="" style="edgeStyle=orthogonalEdgeStyle;rounded=1;orthogonalLoop=1;jettySize=auto;html=1;" parent="UE_UC31S6Wi6J-l9XYea-1" source="UE_UC31S6Wi6J-l9XYea-6" target="UE_UC31S6Wi6J-l9XYea-4" edge="1">
          <mxGeometry relative="1" as="geometry" />
        </mxCell>
        <mxCell id="UE_UC31S6Wi6J-l9XYea-6" value="&lt;b&gt;Pedido de reparación&lt;br&gt;&lt;/b&gt;#265&lt;br&gt;(Pedido-Compras)" style="rounded=1;whiteSpace=wrap;html=1;fillColor=#f8cecc;strokeColor=#b85450;" parent="UE_UC31S6Wi6J-l9XYea-1" vertex="1">
          <mxGeometry x="160" y="71.12" width="150" height="57.5" as="geometry" />
        </mxCell>
        <mxCell id="ez8-ZB6mri_OmdBjOkzV-2" value="" style="edgeStyle=orthogonalEdgeStyle;rounded=1;orthogonalLoop=1;jettySize=auto;html=1;" parent="UE_UC31S6Wi6J-l9XYea-1" source="UE_UC31S6Wi6J-l9XYea-8" target="UE_UC31S6Wi6J-l9XYea-3" edge="1">
          <mxGeometry relative="1" as="geometry" />
        </mxCell>
        <mxCell id="UE_UC31S6Wi6J-l9XYea-8" value="&lt;b&gt;Cotización reparación&lt;br&gt;&lt;/b&gt;#266&lt;br&gt;(Cotización - Ventas)&lt;br&gt;&lt;br&gt;&lt;div style=&quot;text-align: left&quot;&gt;&lt;span style=&quot;font-size: 11px&quot;&gt;Referencia: Envío a&amp;nbsp;&lt;/span&gt;&lt;span style=&quot;font-size: 11px&quot;&gt;reparación&lt;/span&gt;&lt;/div&gt;" style="rounded=1;whiteSpace=wrap;html=1;fillColor=#e1d5e7;strokeColor=#9673a6;" parent="UE_UC31S6Wi6J-l9XYea-1" vertex="1">
          <mxGeometry x="600" y="57.300000000000004" width="170" height="85.13" as="geometry" />
        </mxCell>
        <mxCell id="ez8-ZB6mri_OmdBjOkzV-3" value="&lt;b&gt;Recepción&amp;nbsp;de&amp;nbsp; reparación&lt;br&gt;&lt;/b&gt;#267&lt;br&gt;(Mov. Entrada)&lt;br&gt;&lt;br&gt;&lt;div style=&quot;text-align: left ; font-size: 11px&quot;&gt;Origen : Proveedor&lt;/div&gt;&lt;div style=&quot;text-align: left ; font-size: 11px&quot;&gt;Destino: Deposito&lt;/div&gt;&lt;div style=&quot;text-align: left ; font-size: 11px&quot;&gt;Referencia: Cotización reparación&lt;/div&gt;&lt;div style=&quot;text-align: left ; font-size: 11px&quot;&gt;&lt;br&gt;&lt;/div&gt;&lt;div style=&quot;text-align: justify ; font-size: 11px&quot;&gt;&lt;font face=&quot;Times New Roman&quot;&gt;Obs: &quot;Se gestiona stock de origen a destino&quot;&lt;/font&gt;&lt;/div&gt;" style="rounded=1;whiteSpace=wrap;html=1;fillColor=#dae8fc;strokeColor=#6c8ebf;" parent="UE_UC31S6Wi6J-l9XYea-1" vertex="1">
          <mxGeometry x="800" y="280" width="200" height="137" as="geometry" />
        </mxCell>
        <mxCell id="ez8-ZB6mri_OmdBjOkzV-4" value="" style="edgeStyle=orthogonalEdgeStyle;rounded=1;orthogonalLoop=1;jettySize=auto;html=1;entryX=0;entryY=0.5;entryDx=0;entryDy=0;" parent="UE_UC31S6Wi6J-l9XYea-1" source="ez8-ZB6mri_OmdBjOkzV-5" target="ez8-ZB6mri_OmdBjOkzV-3" edge="1">
          <mxGeometry relative="1" as="geometry">
            <mxPoint x="805" y="349" as="targetPoint" />
          </mxGeometry>
        </mxCell>
        <mxCell id="ez8-ZB6mri_OmdBjOkzV-5" value="&lt;b&gt;Envío&amp;nbsp;a reparación&lt;br&gt;&lt;/b&gt;#262&lt;br&gt;(Mov. Salida)&lt;br&gt;&lt;br&gt;&lt;div style=&quot;text-align: left&quot;&gt;&lt;span style=&quot;font-size: 11px&quot;&gt;Origen&lt;/span&gt;&lt;span style=&quot;font-size: 11px&quot;&gt;&amp;nbsp;: Deposito&lt;/span&gt;&lt;/div&gt;&lt;div style=&quot;text-align: left ; font-size: 11px&quot;&gt;&lt;span&gt;&lt;font style=&quot;font-size: 11px&quot;&gt;Destino: Proveedor&lt;/font&gt;&lt;/span&gt;&lt;/div&gt;&lt;div style=&quot;text-align: left&quot;&gt;&lt;font&gt;&lt;span style=&quot;font-size: 11px&quot;&gt;Referencia: Pedido de reparacion&lt;/span&gt;&lt;/font&gt;&lt;/div&gt;&lt;div style=&quot;text-align: left&quot;&gt;&lt;span style=&quot;font-size: 11px&quot;&gt;&lt;br&gt;&lt;/span&gt;&lt;/div&gt;&lt;div style=&quot;text-align: left ; font-size: 11px&quot;&gt;&lt;span style=&quot;font-family: &amp;#34;times new roman&amp;#34; ; text-align: justify&quot;&gt;Obs: &quot;Se gestiona stock de origen a destino&quot;&lt;/span&gt;&lt;span&gt;&lt;font style=&quot;font-size: 11px&quot;&gt;&lt;br&gt;&lt;/font&gt;&lt;/span&gt;&lt;/div&gt;" style="rounded=1;whiteSpace=wrap;html=1;fillColor=#ffe6cc;strokeColor=#d79b00;" parent="UE_UC31S6Wi6J-l9XYea-1" vertex="1">
          <mxGeometry x="460" y="280" width="200" height="138.12" as="geometry" />
        </mxCell>
        <mxCell id="ez8-ZB6mri_OmdBjOkzV-6" value="" style="edgeStyle=orthogonalEdgeStyle;rounded=1;orthogonalLoop=1;jettySize=auto;html=1;" parent="UE_UC31S6Wi6J-l9XYea-1" source="ez8-ZB6mri_OmdBjOkzV-7" target="ez8-ZB6mri_OmdBjOkzV-5" edge="1">
          <mxGeometry relative="1" as="geometry" />
        </mxCell>
        <mxCell id="ez8-ZB6mri_OmdBjOkzV-7" value="&lt;b&gt;Pedido de reparación&lt;br&gt;&lt;/b&gt;#265&lt;br&gt;(Pedido-Compras)" style="rounded=1;whiteSpace=wrap;html=1;fillColor=#f8cecc;strokeColor=#b85450;" parent="UE_UC31S6Wi6J-l9XYea-1" vertex="1">
          <mxGeometry x="165" y="320.31" width="150" height="57.5" as="geometry" />
        </mxCell>
      </root>
    </mxGraphModel>
  </diagram>
  <diagram id="n6yQFvtgSzPSHOF0cB6u" name="Disponibilización">
    <mxGraphModel dx="1422" dy="762" grid="1" gridSize="10" guides="1" tooltips="1" connect="1" arrows="1" fold="1" page="1" pageScale="1" pageWidth="1169" pageHeight="827" math="0" shadow="0">
      <root>
        <mxCell id="f_dKCLh24sFphfd2hH2T-0" />
        <mxCell id="f_dKCLh24sFphfd2hH2T-1" parent="f_dKCLh24sFphfd2hH2T-0" />
        <mxCell id="r48xlvRdUSF8sC9Kp0lY-2" style="edgeStyle=orthogonalEdgeStyle;rounded=1;orthogonalLoop=1;jettySize=auto;html=1;entryX=0;entryY=0.5;entryDx=0;entryDy=0;" parent="f_dKCLh24sFphfd2hH2T-1" source="r48xlvRdUSF8sC9Kp0lY-0" target="r48xlvRdUSF8sC9Kp0lY-1" edge="1">
          <mxGeometry relative="1" as="geometry" />
        </mxCell>
        <mxCell id="r48xlvRdUSF8sC9Kp0lY-4" value="" style="edgeStyle=orthogonalEdgeStyle;rounded=1;orthogonalLoop=1;jettySize=auto;html=1;endArrow=oval;endFill=1;" parent="f_dKCLh24sFphfd2hH2T-1" source="r48xlvRdUSF8sC9Kp0lY-0" target="r48xlvRdUSF8sC9Kp0lY-3" edge="1">
          <mxGeometry relative="1" as="geometry" />
        </mxCell>
        <mxCell id="r48xlvRdUSF8sC9Kp0lY-0" value="&lt;b&gt;Compra&lt;br&gt;&lt;/b&gt;(Mov. Entrada)&lt;br&gt;&lt;br&gt;&lt;div style=&quot;text-align: left ; font-size: 11px&quot;&gt;Origen : Proveedor&lt;/div&gt;&lt;div style=&quot;text-align: left ; font-size: 11px&quot;&gt;Destino: Deposito (Cuarentena)&lt;/div&gt;&lt;div style=&quot;text-align: left ; font-size: 11px&quot;&gt;Referencia:&lt;/div&gt;" style="rounded=1;whiteSpace=wrap;html=1;fillColor=#dae8fc;strokeColor=#6c8ebf;" parent="f_dKCLh24sFphfd2hH2T-1" vertex="1">
          <mxGeometry x="290" y="20" width="170" height="85" as="geometry" />
        </mxCell>
        <mxCell id="r48xlvRdUSF8sC9Kp0lY-7" value="" style="edgeStyle=orthogonalEdgeStyle;rounded=1;orthogonalLoop=1;jettySize=auto;html=1;endArrow=oval;endFill=1;" parent="f_dKCLh24sFphfd2hH2T-1" source="r48xlvRdUSF8sC9Kp0lY-1" target="r48xlvRdUSF8sC9Kp0lY-5" edge="1">
          <mxGeometry relative="1" as="geometry" />
        </mxCell>
        <mxCell id="r48xlvRdUSF8sC9Kp0lY-1" value="&lt;b&gt;Revisión&amp;nbsp;&lt;/b&gt;&lt;br&gt;(Mov. Entrada)&lt;br&gt;&lt;br&gt;&lt;div style=&quot;text-align: left ; font-size: 11px&quot;&gt;Origen : Deposito (Cuarentena)&lt;/div&gt;&lt;div style=&quot;text-align: left ; font-size: 11px&quot;&gt;Destino: Deposito Central)&lt;/div&gt;&lt;div style=&quot;text-align: left ; font-size: 11px&quot;&gt;Referencia: Compra&lt;/div&gt;" style="rounded=1;whiteSpace=wrap;html=1;fillColor=#dae8fc;strokeColor=#6c8ebf;" parent="f_dKCLh24sFphfd2hH2T-1" vertex="1">
          <mxGeometry x="530" y="20" width="180" height="85" as="geometry" />
        </mxCell>
        <mxCell id="r48xlvRdUSF8sC9Kp0lY-3" value="&lt;ol&gt;&lt;li&gt;10 Mat A&amp;nbsp;&lt;/li&gt;&lt;li&gt;30 Mat B&lt;/li&gt;&lt;li&gt;50 Mat C&lt;/li&gt;&lt;li&gt;1&amp;nbsp; &amp;nbsp;Mat D&lt;/li&gt;&lt;li&gt;3&amp;nbsp; &amp;nbsp;Mat E&lt;/li&gt;&lt;/ol&gt;" style="text;strokeColor=none;fillColor=none;html=1;whiteSpace=wrap;verticalAlign=middle;overflow=hidden;" parent="f_dKCLh24sFphfd2hH2T-1" vertex="1">
          <mxGeometry x="308" y="150" width="133" height="130" as="geometry" />
        </mxCell>
        <mxCell id="r48xlvRdUSF8sC9Kp0lY-5" value="&lt;ol style=&quot;font-size: 16px;&quot;&gt;&lt;li style=&quot;font-size: 16px;&quot;&gt;10 Mat A NOK =&amp;gt; Rechazado&lt;/li&gt;&lt;li style=&quot;font-size: 16px;&quot;&gt;30 Mat B OK&amp;nbsp;&amp;nbsp; &amp;nbsp;=&amp;gt; Aceptado&lt;/li&gt;&lt;li style=&quot;font-size: 16px;&quot;&gt;50 Mat C OK&amp;nbsp; &amp;nbsp;=&amp;gt; Aceptado&lt;/li&gt;&lt;li style=&quot;font-size: 16px;&quot;&gt;1&amp;nbsp; &amp;nbsp;Mat D OK&amp;nbsp; &amp;nbsp;=&amp;gt; Aceptado&amp;nbsp;&lt;/li&gt;&lt;li style=&quot;font-size: 16px;&quot;&gt;3&amp;nbsp; &amp;nbsp;Mat E NOK =&amp;gt; Rechazado&lt;/li&gt;&lt;/ol&gt;" style="text;html=1;whiteSpace=wrap;verticalAlign=middle;overflow=hidden;fontSize=16;" parent="f_dKCLh24sFphfd2hH2T-1" vertex="1">
          <mxGeometry x="500" y="160" width="330" height="130" as="geometry" />
        </mxCell>
        <mxCell id="dG5YmUbmk48ttYex5nGd-1" value="" style="edgeStyle=orthogonalEdgeStyle;rounded=0;orthogonalLoop=1;jettySize=auto;html=1;" parent="f_dKCLh24sFphfd2hH2T-1" source="dG5YmUbmk48ttYex5nGd-0" target="r48xlvRdUSF8sC9Kp0lY-0" edge="1">
          <mxGeometry relative="1" as="geometry" />
        </mxCell>
        <mxCell id="dG5YmUbmk48ttYex5nGd-0" value="&lt;b&gt;Pedido&lt;/b&gt;&lt;br&gt;(Pedido-Compras)" style="rounded=1;whiteSpace=wrap;html=1;fillColor=#f8cecc;strokeColor=#b85450;" parent="f_dKCLh24sFphfd2hH2T-1" vertex="1">
          <mxGeometry x="60" y="33.75" width="150" height="57.5" as="geometry" />
        </mxCell>
      </root>
    </mxGraphModel>
  </diagram>
</mxfile>
